 <svg  version="1.0" xmlns="http://www.w3.org/2000/svg"  width="300.000000pt" height="300.000000pt" viewBox="0 0 300.000000 300.000000"  preserveAspectRatio="xMidYMid meet">  <g transform="translate(0.000000,300.000000) scale(0.100000,-0.100000)" fill="#f50000" stroke="none"> <path d="M1002 2168 c-23 -23 -14 -59 18 -71 30 -12 39 -30 19 -43 -6 -3 -16 -1 -22 5 -16 16 -37 14 -31 -4 14 -36 94 -24 94 14 0 19 -24 44 -52 54 -34 12 -20 30 17 23 38 -8 48 7 16 24 -26 13 -44 13 -59 -2z"/> <path d="M1116 2164 c-16 -16 -22 -90 -8 -109 4 -5 21 -20 39 -32 39 -28 63 -31 40 -5 -13 15 -14 19 -1 36 45 62 -19 162 -70 110z m52 -61 c-2 -35 -7 -48 -18 -48 -11 0 -16 13 -18 48 -3 42 -1 47 18 47 19 0 21 -5 18 -47z"/> <path d="M1229 2176 c-2 -2 -2 -36 -1 -76 l4 -71 41 3 c50 4 56 22 10 26 l-33 3 0 60 c0 52 -7 69 -21 55z"/> <path d="M1330 2175 c0 -3 9 -25 20 -47 11 -23 20 -54 20 -70 0 -18 5 -28 15 -28 10 0 15 10 15 30 0 17 9 48 20 70 24 47 24 50 6 50 -8 0 -20 -17 -27 -37 l-12 -37 -19 37 c-16 32 -38 50 -38 32z"/> <path d="M1464 2105 c-18 -63 -19 -75 -7 -75 8 0 17 9 20 20 6 23 43 28 43 6 0 -16 18 -31 27 -22 3 3 -2 37 -12 76 -24 97 -43 95 -71 -5z m48 10 c4 -19 1 -25 -12 -25 -13 0 -16 6 -12 25 2 14 8 25 12 25 4 0 10 -11 12 -25z"/> <path d="M1570 2105 c0 -60 3 -75 15 -75 10 0 15 10 15 30 0 25 4 30 23 30 47 0 63 47 25 74 -12 9 -35 16 -50 16 l-28 0 0 -75z m70 25 c0 -13 -7 -20 -20 -20 -13 0 -20 7 -20 20 0 13 7 20 20 20 13 0 20 -7 20 -20z"/> <path d="M1690 2105 c0 -62 3 -75 16 -75 12 0 14 7 9 29 -6 28 -4 30 26 33 68 7 49 88 -21 88 l-30 0 0 -75z m68 28 c-2 -10 -13 -19 -26 -21 -17 -3 -22 2 -22 17 0 16 6 21 26 21 19 0 25 -5 22 -17z"/> <path d="M1810 2106 l0 -76 45 0 c33 0 45 4 45 15 0 11 -11 15 -36 15 -28 0 -35 3 -32 18 2 12 11 16 31 14 19 -3 27 1 27 12 0 11 -9 16 -30 16 -20 0 -30 5 -30 15 0 11 11 15 36 15 51 0 39 24 -14 28 l-42 3 0 -75z"/> <path d="M1927 2173 c-4 -3 -7 -37 -7 -75 0 -54 3 -68 15 -68 10 0 15 10 15 30 0 17 4 30 9 30 5 0 14 -13 21 -30 7 -16 19 -30 26 -30 18 0 18 10 -2 38 -14 20 -14 24 0 38 9 8 16 22 16 29 0 29 -73 59 -93 38z m63 -43 c0 -13 -7 -20 -20 -20 -13 0 -20 7 -20 20 0 13 7 20 20 20 13 0 20 -7 20 -20z"/> <path d="M908 2129 c-45 -23 -48 -43 -10 -57 15 -5 35 -13 45 -17 10 -4 17 -3 17 4 0 6 -15 17 -32 24 l-33 14 33 17 c17 9 32 21 32 26 0 14 -10 12 -52 -11z"/> <path d="M2040 2137 c0 -7 15 -19 33 -26 l32 -13 -32 -14 c-34 -14 -48 -42 -15 -29 9 4 29 12 45 17 38 14 34 34 -13 58 -46 24 -50 24 -50 7z"/> <path d="M1560 1634 c0 -8 -140 -657 -146 -676 -4 -12 0 -18 10 -18 9 0 16 2 16 3 0 8 140 652 145 668 3 10 -1 19 -10 23 -8 3 -15 3 -15 0z"/> <path d="M1207 1392 c-53 -53 -97 -100 -97 -104 0 -4 43 -51 95 -104 64 -65 99 -94 106 -87 6 6 -20 39 -81 98 l-91 89 93 93 c61 62 89 96 82 103 -6 6 -42 -23 -107 -88z"/> <path d="M1685 1480 c-5 -8 26 -45 84 -104 l91 -91 -90 -90 c-57 -57 -86 -93 -80 -99 6 -6 46 27 109 91 l100 100 -103 102 c-69 69 -106 99 -111 91z"/> </g> </svg> 